<?xml version="1.0" encoding="UTF-8" standalone="no"?>
<!-- Created with Inkscape (http://www.inkscape.org/) -->

<svg
   xmlns:dc="http://purl.org/dc/elements/1.1/"
   xmlns:cc="http://creativecommons.org/ns#"
   xmlns:rdf="http://www.w3.org/1999/02/22-rdf-syntax-ns#"
   xmlns:svg="http://www.w3.org/2000/svg"
   xmlns="http://www.w3.org/2000/svg"
   xmlns:sodipodi="http://sodipodi.sourceforge.net/DTD/sodipodi-0.dtd"
   xmlns:inkscape="http://www.inkscape.org/namespaces/inkscape"
   width="210mm"
   height="297mm"
   viewBox="0 0 210 297"
   version="1.1"
   id="svg8"
   inkscape:version="0.92.4 (5da689c313, 2019-01-14)"
   sodipodi:docname="carne.svg">
  <defs
     id="defs2" />
  <sodipodi:namedview
     id="base"
     pagecolor="#ffffff"
     bordercolor="#666666"
     borderopacity="1.0"
     inkscape:pageopacity="0.0"
     inkscape:pageshadow="2"
     inkscape:zoom="7.9195959"
     inkscape:cx="261.11451"
     inkscape:cy="527.36876"
     inkscape:document-units="mm"
     inkscape:current-layer="layer1"
     showgrid="false"
     inkscape:window-width="2560"
     inkscape:window-height="1057"
     inkscape:window-x="-8"
     inkscape:window-y="-8"
     inkscape:window-maximized="1" />
  <metadata
     id="metadata5">
    <rdf:RDF>
      <cc:Work
         rdf:about="">
        <dc:format>image/svg+xml</dc:format>
        <dc:type
           rdf:resource="http://purl.org/dc/dcmitype/StillImage" />
        <dc:title></dc:title>
      </cc:Work>
    </rdf:RDF>
  </metadata>
  <g
     inkscape:label="Camada 1"
     inkscape:groupmode="layer"
     id="layer1">
    <g
       transform="matrix(0.26182702,0,0,0.26182702,62.394598,152.5087)"
       id="g4069"
       inkscape:export-xdpi="96"
       inkscape:export-ydpi="96">
      <path
         style="fill:#ead4aa;fill-opacity:1"
         d="M 3,1.5 Q 3.25,1.25 3.625,1.125 L 4,1 3.71875,1.09375 3.4375,1.1875 3.625,1.125 Q 3.8125,1.0625 4.03125,1.03125 L 4.25,1 4.140625,1.015625 4.03125,1.03125 4.015625,1.515625 4,2 3.625,2.125 Q 3.25,2.25 3,2.5 2.75,2.75 2.5,3 2.25,3.25 2.125,3.625 2,4 2,4.5 V 5 H 1.5 1 V 4.5 Q 1,4 1.125,3.625 1.25,3.25 1.5,3 1.75,2.75 2,2.5 2.25,2.25 2.5,2 2.75,1.75 3,1.5 M 1,4.625 V 5 5.125 5.25 5 Q 1,4.75 1,4.5 V 4.25 4.625 m 1,0.5 V 5 4.625 4.25 4.5 Q 2,4.75 2,5 V 5.25 5.125"
         id="path3973"
         inkscape:connector-curvature="0" />
      <path
         style="fill:#e8b796;fill-opacity:1"
         d="M 4.015625,1.515625 4.03125,1.03125 3.921875,1.046875 3.8125,1.0625 4.03125,1.03125 Q 4.25,1 4.5,1 H 4.75 4.375 4 4.5 Q 5,1 5.5,1 6,1 6.5,1 H 7 6.625 6.25 6.5 Q 6.75,1 6.96875,1.03125 L 7.1875,1.0625 7.078125,1.046875 6.96875,1.03125 6.984375,1.515625 7,2 H 6.5 Q 6,2 5.5,2 5,2 4.5,2 H 4 L 4.015625,1.515625 M 6.625,2 H 7 7.125 7.25 7 Q 6.75,2 6.5,2 H 6.25 6.625"
         id="path3975"
         inkscape:connector-curvature="0" />
      <path
         style="fill:#ead4aa;fill-opacity:1"
         d="M 6.984375,1.515625 6.96875,1.03125 6.859375,1.015625 6.75,1 6.96875,1.03125 Q 7.1875,1.0625 7.375,1.125 L 7.5625,1.1875 7.28125,1.09375 7,1 7.375,1.125 q 0.375,0.125 0.5,0.5 L 8,2 H 7.5 7 L 6.984375,1.515625 M 6.875,2 H 7 7.375 7.75 7.5 Q 7.25,2 7,2 H 6.75 6.875"
         id="path3977"
         inkscape:connector-curvature="0" />
      <path
         style="fill:#a22633;fill-opacity:1"
         d="M 3,2.5 Q 3.25,2.25 3.625,2.125 L 4,2 4.125,2.375 Q 4.25,2.75 4.5,2.75 4.75,2.75 4.875,2.375 L 5,2 H 5.5 Q 6,2 6.5,2 7,2 7.5,2 H 8 L 8.125,2.375 Q 8.25,2.75 8.5,3 8.75,3.25 8.875,3.625 9,4 9.125,4.375 9.25,4.75 9.625,4.875 10,5 10.375,5.125 10.75,5.25 10.875,5.625 11,6 11.125,6.375 11.25,6.75 11.625,6.875 12,7 12.5,7 13,7 13.375,6.875 13.75,6.75 13.875,6.375 L 14,6 h 0.5 q 0.5,0 1,0 0.5,0 0.875,0.125 0.375,0.125 0.5,0.5 L 17,7 16.90625,6.71875 16.8125,6.4375 16.875,6.625 q 0.0625,0.1875 0.21875,0.28125 L 17.25,7 17.171875,6.953125 17.09375,6.90625 17.046875,7.453125 Q 17,8 17,8.5 V 9 8.625 8.25 8.5 q 0,0.25 -0.03125,0.46875 L 16.9375,9.1875 16.953125,9.078125 16.96875,8.96875 16.609375,8.859375 Q 16.25,8.75 16,8.5 15.75,8.25 15.5,8.25 q -0.25,0 -0.25,0.25 0,0.25 0.25,0.5 0.25,0.25 0.25,0.5 0,0.25 -0.25,0.5 -0.25,0.25 -0.5,0.5 -0.25,0.25 -0.671875,0.328125 l -0.421875,0.07813 -0.04687,0.07813 -0.04687,0.07813 0.09375,-0.15625 Q 14,10.75 14,10.5 V 10.25 10.625 11 10.5 Q 14,10 13.875,9.625 13.75,9.25 13.375,9.125 13,9 12.875,8.625 12.75,8.25 12.375,8.125 12,8 11.5,8 11,8 10.625,8.125 10.25,8.25 10,8.5 9.75,8.75 9.5,9 9.25,9.25 9.125,9.625 9,10 9.125,10.375 q 0.125,0.375 0.5,0.5 L 10,11 v 0.5 q 0,0.5 0,1 0,0.5 0.125,0.875 0.125,0.375 0.5,0.5 0.375,0.125 0.75,0 Q 11.75,13.75 12,13.5 12.25,13.25 12.625,13.125 13,13 13.375,13.125 13.75,13.25 14,13.5 q 0.25,0.25 0.5,0.5 0.25,0.25 0.5,0.5 0.25,0.25 0.5,0.5 0.25,0.25 0.375,0.625 Q 16,16 16,16.5 V 17 h -0.5 q -0.5,0 -1,0 -0.5,0 -1,0 -0.5,0 -1,0 -0.5,0 -1,0 -0.5,0 -1,0 -0.5,0 -1,0 H 9 L 9.125,16.625 Q 9.25,16.25 9.625,16.125 10,16 10.5,16 11,16 11.375,15.875 11.75,15.75 11.75,15.5 11.75,15.25 11.375,15.125 11,15 10.5,15 10,15 9.5,15 9,15 8.625,15.125 8.25,15.25 8,15.5 7.75,15.75 7.375,15.875 7,16 6.46875,16.03125 L 5.9375,16.0625 6,16.125 6.0625,16.1875 5.9375,16.0625 Q 5.8125,15.9375 5.625,15.875 L 5.4375,15.8125 5.71875,15.90625 6,16 5.625,15.875 Q 5.25,15.75 5.125,15.375 L 5,15 5.09375,15.28125 5.1875,15.5625 5.125,15.375 Q 5.0625,15.1875 4.9375,15.0625 L 4.8125,14.9375 4.875,15 4.9375,15.0625 4.953125,14.515625 4.96875,13.96875 4.859375,13.984375 4.75,14 4.96875,13.96875 Q 5.1875,13.9375 5.375,13.875 L 5.5625,13.8125 5.28125,13.90625 5,14 5.375,13.875 Q 5.75,13.75 6,13.5 6.25,13.25 6.5,13 6.75,12.75 7,12.5 7.25,12.25 7.625,12.125 8,12 8.375,11.875 8.75,11.75 8.75,11.5 8.75,11.25 8.375,11.125 8,11 7.625,11.125 7.25,11.25 7,11.5 6.75,11.75 6.5,12 6.25,12.25 6,12.5 5.75,12.75 5.375,12.875 L 5,13 5.28125,12.90625 5.5625,12.8125 5.375,12.875 Q 5.1875,12.9375 4.96875,12.96875 L 4.75,13 4.859375,12.984375 4.96875,12.96875 4.859375,12.609375 Q 4.75,12.25 4.5,12 4.25,11.75 4,11.5 3.75,11.25 3.5,11.25 q -0.25,0 -0.25,0.25 0,0.25 0.25,0.5 0.25,0.25 0.375,0.625 L 4,13 H 3.5 Q 3,13 2.625,12.875 2.25,12.75 2.125,12.375 2,12 2,11.5 2,11 2,10.5 2,10 2,9.5 2,9 2,8.5 2,8 2,7.5 2,7 2,6.5 2,6 2,5.5 2,5 2,4.5 2,4 2.125,3.625 2.25,3.25 2.5,3 2.75,2.75 3,2.5 M 3.125,5.375 Q 3.25,5.75 3.5,5.75 3.75,5.75 3.875,5.375 4,5 3.875,4.625 3.75,4.25 3.5,4.25 3.25,4.25 3.125,4.625 3,5 3.125,5.375 M 3.625,13 H 4 4.125 4.25 4 Q 3.75,13 3.5,13 H 3.25 3.625 m 1,-4.125 Q 5,9 5.375,8.875 5.75,8.75 5.75,8.5 5.75,8.25 5.375,8.125 5,8 4.625,7.875 4.25,7.75 4,7.5 3.75,7.25 3.5,7.25 3.25,7.25 3.25,7.5 3.25,7.75 3.5,8 3.75,8.25 4,8.5 4.25,8.75 4.625,8.875 M 5.25,4.5 q 0,0.25 0.25,0.25 0.25,0 0.25,-0.25 0,-0.25 -0.25,-0.25 -0.25,0 -0.25,0.25 M 8.125,8.375 Q 8.25,8.75 8.5,8.75 8.75,8.75 8.875,8.375 9,8 8.875,7.625 8.75,7.25 8.5,7.25 8.25,7.25 8.125,7.625 8,8 8.125,8.375 M 12.25,14.5 q 0,0.25 0.25,0.25 0.25,0 0.25,-0.25 0,-0.25 -0.25,-0.25 -0.25,0 -0.25,0.25 M 8.875,17 H 9 9.375 9.75 9.5 Q 9.25,17 9,17 H 8.75 8.875 m 5.5,-11 H 14 13.875 13.75 14 q 0.25,0 0.5,0 h 0.25 -0.375 m -9,-4 H 5 4.875 4.75 5 Q 5.25,2 5.5,2 H 5.75 5.375"
         id="path3979"
         inkscape:connector-curvature="0" />
      <path
         style="fill:#e43b44;fill-opacity:1"
         d="M 4.125,2.375 4,2 H 4.5 5 L 4.875,2.375 Q 4.75,2.75 4.5,2.75 4.25,2.75 4.125,2.375 M 5.125,2 H 5 4.625 4.25 4.5 Q 4.75,2 5,2 H 5.25 5.125"
         id="path3981"
         inkscape:connector-curvature="0" />
      <path
         style="fill:#e8b796;fill-opacity:1"
         d="M 8.125,2.375 8,2 8.375,2.125 Q 8.75,2.25 9,2.5 9.25,2.75 9.5,3 9.75,3.25 10,3.5 10.25,3.75 10.5,4 10.75,4.25 11,4.5 11.25,4.75 11.625,4.875 12,5 12.5,5 H 13 V 5.5 6 H 12.5 Q 12,6 11.5,6 H 11 L 10.875,5.625 Q 10.75,5.25 10.375,5.125 L 10,5 9.875,4.625 Q 9.75,4.25 9.375,4.125 L 9,4 8.875,3.625 Q 8.75,3.25 8.5,3 8.25,2.75 8.125,2.375 M 8.90625,3.71875 9,4 9.03125,4.09375 9.0625,4.1875 9,4 Q 8.9375,3.8125 8.875,3.625 L 8.8125,3.4375 8.90625,3.71875 m 1,1.25 L 10,5 10.28125,5.09375 10.5625,5.1875 10.375,5.125 Q 10.1875,5.0625 10,5 L 9.8125,4.9375 9.90625,4.96875 m 1,0.75 L 11,6 11.03125,6.09375 11.0625,6.1875 11,6 Q 10.9375,5.8125 10.875,5.625 L 10.8125,5.4375 10.90625,5.71875 M 12.625,6 H 13 13.125 13.25 13 q -0.25,0 -0.5,0 h -0.25 0.375 m 0.5,-1 H 13 12.625 12.25 12.5 q 0.25,0 0.5,0 h 0.25 -0.125"
         id="path3983"
         inkscape:connector-curvature="0" />
      <path
         style="fill:#f6757a;fill-opacity:1"
         d="M 3.125,4.625 Q 3.25,4.25 3.5,4.25 3.75,4.25 3.875,4.625 4,5 3.875,5.375 3.75,5.75 3.5,5.75 3.25,5.75 3.125,5.375 3,5 3.125,4.625"
         id="path3985"
         inkscape:connector-curvature="0" />
      <path
         style="fill:#f6757a;fill-opacity:1"
         d="m 5.25,4.5 q 0,-0.25 0.25,-0.25 0.25,0 0.25,0.25 0,0.25 -0.25,0.25 -0.25,0 -0.25,-0.25"
         id="path3987"
         inkscape:connector-curvature="0" />
      <path
         style="fill:#e43b44;fill-opacity:1"
         d="M 9.125,4.375 9,4 9.375,4.125 q 0.375,0.125 0.5,0.5 L 10,5 9.625,4.875 Q 9.25,4.75 9.125,4.375 M 9.71875,4.90625 10,5 10.09375,5.03125 10.1875,5.0625 10,5 Q 9.8125,4.9375 9.625,4.875 L 9.4375,4.8125 9.71875,4.90625 m -0.75,-1 L 9,4 9.09375,4.28125 9.1875,4.5625 9.125,4.375 Q 9.0625,4.1875 9,4 L 8.9375,3.8125 8.96875,3.90625"
         id="path3989"
         inkscape:connector-curvature="0" />
      <path
         style="fill:#e8b796;fill-opacity:1"
         d="M 1,5.5 V 5 H 1.5 2 V 5.5 Q 2,6 2,6.5 2,7 2,7.5 2,8 2,8.5 2,9 2,9.5 V 10 H 1.5 1 V 9.5 Q 1,9 1,8.5 1,8 1,7.5 1,7 1,6.5 1,6 1,5.5 M 1,9.625 V 10 10.125 10.25 10 Q 1,9.75 1,9.5 V 9.25 9.625 m 1,0.5 V 10 9.625 9.25 9.5 Q 2,9.75 2,10 v 0.25 -0.125 M 2,5.375 V 5 4.875 4.75 5 Q 2,5.25 2,5.5 V 5.75 5.375 M 1,4.875 V 5 5.375 5.75 5.5 Q 1,5.25 1,5 V 4.75 4.875"
         id="path3991"
         inkscape:connector-curvature="0" />
      <path
         style="fill:#ead4aa;fill-opacity:1"
         d="M 13,5.5 V 5 h 0.5 q 0.5,0 1,0 0.5,0 1,0 Q 16,5 16.375,5.125 16.75,5.25 17,5.5 17.25,5.75 17.625,5.875 18,6 18.375,6.125 q 0.375,0.125 0.5,0.5 L 19,7 H 18.5 Q 18,7 17.5,7 17,7 16.875,6.625 16.75,6.25 16.375,6.125 16,6 15.5,6 15,6 14.5,6 14,6 13.5,6 H 13 V 5.5 M 12.875,6 H 13 13.375 13.75 13.5 Q 13.25,6 13,6 h -0.25 0.125 m 0.5,-1 H 13 12.875 12.75 13 q 0.25,0 0.5,0 h 0.25 -0.375"
         id="path3993"
         inkscape:connector-curvature="0" />
      <path
         style="fill:#e43b44;fill-opacity:1"
         d="M 11.125,6.375 11,6 h 0.5 q 0.5,0 1,0 0.5,0 1,0 H 14 L 13.875,6.375 Q 13.75,6.75 13.375,6.875 13,7 12.5,7 12,7 11.625,6.875 11.25,6.75 11.125,6.375 M 14.125,6 H 14 13.625 13.25 13.5 q 0.25,0 0.5,0 h 0.25 -0.125 M 10.96875,5.90625 11,6 11.09375,6.28125 11.1875,6.5625 11.125,6.375 Q 11.0625,6.1875 11,6 l -0.0625,-0.1875 0.03125,0.09375"
         id="path3995"
         inkscape:connector-curvature="0" />
      <path
         style="fill:#f6757a;fill-opacity:1"
         d="M 3.25,7.5 Q 3.25,7.25 3.5,7.25 3.75,7.25 4,7.5 4.25,7.75 4.625,7.875 5,8 5.375,8.125 5.75,8.25 5.75,8.5 5.75,8.75 5.375,8.875 5,9 4.625,8.875 4.25,8.75 4,8.5 3.75,8.25 3.5,8 3.25,7.75 3.25,7.5"
         id="path3997"
         inkscape:connector-curvature="0" />
      <path
         style="fill:#e43b44;fill-opacity:1"
         d="M 8.125,7.625 Q 8.25,7.25 8.5,7.25 q 0.25,0 0.375,0.375 L 9,8 8.90625,7.71875 8.8125,7.4375 8.875,7.625 Q 8.9375,7.8125 8.9375,8 V 8.1875 8.09375 8 H 8.5 8.0625 V 8.09375 8.1875 8 q 0,-0.1875 0.0625,-0.375 L 8.1875,7.4375 8.09375,7.71875 8,8 8.125,7.625"
         id="path3999"
         inkscape:connector-curvature="0" />
      <path
         style="fill:#e43b44;fill-opacity:1"
         d="M 17.046875,7.453125 17.09375,6.90625 17.015625,6.859375 16.9375,6.8125 17.09375,6.90625 Q 17.25,7 17.5,7 H 17.75 17.375 17 17.5 18 l -0.125,0.375 q -0.125,0.375 -0.5,0.5 L 17,8 17.046875,7.453125 M 17,7.625 V 8 8.125 8.25 8 Q 17,7.75 17,7.5 V 7.25 7.625 M 18.125,7 H 18 17.625 17.25 17.5 q 0.25,0 0.5,0 h 0.25 -0.125"
         id="path4001"
         inkscape:connector-curvature="0" />
      <path
         style="fill:#f6757a;fill-opacity:1"
         d="M 17.875,7.375 18,7 h 0.5 0.5 l 0.125,0.375 q 0.125,0.375 0.5,0.5 L 20,8 V 8.5 9 L 19.625,9.125 Q 19.25,9.25 19,9.5 18.75,9.75 18.375,9.875 18,10 17.625,10.125 17.25,10.25 17,10.5 16.75,10.75 16.5,11 16.25,11.25 16,11.5 15.75,11.75 15.390625,11.890625 L 15.03125,12.03125 15.015625,12.140625 15,12.25 15.03125,12.03125 Q 15.0625,11.8125 15.125,11.625 L 15.1875,11.4375 15.09375,11.71875 15,12 15.125,11.625 Q 15.25,11.25 15.5,11 15.75,10.75 16,10.5 16.25,10.25 16.5,10 16.75,9.75 16.875,9.375 17,9 17,8.5 V 8 l 0.375,-0.125 q 0.375,-0.125 0.5,-0.5 M 17,7.875 V 8 8.375 8.75 8.5 Q 17,8.25 17,8 V 7.75 7.875 M 18.25,8.5 q 0,0.25 0.25,0.25 0.25,0 0.25,-0.25 0,-0.25 -0.25,-0.25 -0.25,0 -0.25,0.25 M 18.375,7 H 18 17.875 17.75 18 q 0.25,0 0.5,0 h 0.25 -0.375"
         id="path4003"
         inkscape:connector-curvature="0" />
      <path
         style="fill:#e8b796;fill-opacity:1"
         d="M 19.125,7.375 19,7 19.375,7.125 q 0.375,0.125 0.5,0.5 L 20,8 19.625,7.875 q -0.375,-0.125 -0.5,-0.5"
         id="path4005"
         inkscape:connector-curvature="0" />
      <path
         style="fill:#f6757a;fill-opacity:1"
         d="M 8.125,8.375 8,8 8.09375,8.28125 8.1875,8.5625 8.125,8.375 Q 8.0625,8.1875 8.0625,8 V 7.8125 7.90625 8 H 8.5 8.9375 V 7.90625 7.8125 8 q 0,0.1875 -0.0625,0.375 L 8.8125,8.5625 8.90625,8.28125 9,8 8.875,8.375 Q 8.75,8.75 8.5,8.75 8.25,8.75 8.125,8.375"
         id="path4007"
         inkscape:connector-curvature="0" />
      <path
         style="fill:#e8b796;fill-opacity:1"
         d="M 10,8.5 Q 10.25,8.25 10.625,8.125 L 11,8 10.71875,8.09375 10.4375,8.1875 10.625,8.125 Q 10.8125,8.0625 11.03125,8.03125 L 11.25,8 11.140625,8.015625 11.03125,8.03125 v 0.5 0.5 L 11.140625,9.015625 11.25,9 11.03125,9.03125 Q 10.8125,9.0625 10.625,9.125 L 10.4375,9.1875 10.71875,9.09375 11,9 10.625,9.125 Q 10.25,9.25 10.125,9.625 10,10 10,10.5 V 11 L 9.625,10.875 Q 9.25,10.75 9.125,10.375 9,10 9.125,9.625 9.25,9.25 9.5,9 9.75,8.75 10,8.5"
         id="path4009"
         inkscape:connector-curvature="0" />
      <path
         style="fill:#e4a672;fill-opacity:1"
         d="m 11.03125,8.53125 v -0.5 L 10.921875,8.046875 10.8125,8.0625 11.03125,8.03125 Q 11.25,8 11.5,8 H 11.75 11.375 11 11.5 12 11.625 11.25 11.5 q 0.25,0 0.46875,0.03125 L 12.1875,8.0625 12.078125,8.046875 11.96875,8.03125 11.984375,8.515625 12,9 H 11.5 11 11.375 11.75 11.5 Q 11.25,9 11.03125,9.03125 L 10.8125,9.0625 10.921875,9.046875 11.03125,9.03125 v -0.5 M 11.625,9 H 12 12.125 12.25 12 q -0.25,0 -0.5,0 h -0.25 0.375"
         id="path4011"
         inkscape:connector-curvature="0" />
      <path
         style="fill:#e8b796;fill-opacity:1"
         d="M 11.984375,8.515625 11.96875,8.03125 11.859375,8.015625 11.75,8 11.96875,8.03125 Q 12.1875,8.0625 12.375,8.125 L 12.5625,8.1875 12.28125,8.09375 12,8 12.375,8.125 q 0.375,0.125 0.5,0.5 L 13,9 12.90625,8.71875 12.8125,8.4375 12.875,8.625 q 0.0625,0.1875 0.1875,0.3125 l 0.125,0.125 L 13.125,9 13.0625,8.9375 12.53125,8.96875 12,9 11.984375,8.515625 M 11.875,9 H 12 12.375 12.75 12.5 Q 12.25,9 12,9 h -0.25 0.125"
         id="path4013"
         inkscape:connector-curvature="0" />
      <path
         style="fill:#e43b44;fill-opacity:1"
         d="m 15.25,8.5 q 0,-0.25 0.25,-0.25 0.25,0 0.5,0.25 0.25,0.25 0.609375,0.359375 L 16.96875,8.96875 16.984375,8.859375 17,8.75 16.96875,8.96875 Q 16.9375,9.1875 16.875,9.375 L 16.8125,9.5625 16.90625,9.28125 17,9 16.875,9.375 Q 16.75,9.75 16.5,10 16.25,10.25 16,10.5 15.75,10.75 15.5,11 15.25,11.25 15.125,11.625 15,12 15,12.5 V 13 12.625 12.25 12.5 q 0,0.25 0.03125,0.46875 L 15.0625,13.1875 15.046875,13.078125 15.03125,12.96875 14.640625,12.859375 Q 14.25,12.75 14,12.5 q -0.25,-0.25 -0.5,-0.25 -0.25,0 -0.375,0.40625 L 13,13.0625 H 13.09375 13.1875 13 q -0.1875,0 -0.375,0.0625 L 12.4375,13.1875 12.71875,13.09375 13,13 12.625,13.125 Q 12.25,13.25 12,13.5 11.75,13.75 11.375,13.875 11,14 10.625,13.875 10.25,13.75 10.125,13.375 10,13 10,12.5 V 12 h 0.5 q 0.5,0 1,0 0.5,0 0.875,-0.125 Q 12.75,11.75 13,11.5 13.25,11.25 13.625,11.125 L 14,11 13.71875,11.09375 13.4375,11.1875 13.625,11.125 q 0.1875,-0.0625 0.28125,-0.21875 L 14,10.75 l -0.04687,0.07813 -0.04687,0.07813 0.421875,-0.07813 Q 14.75,10.75 15,10.5 15.25,10.25 15.5,10 15.75,9.75 15.75,9.5 15.75,9.25 15.5,9 15.25,8.75 15.25,8.5 M 10,11.875 V 12 12.375 12.75 12.5 q 0,-0.25 0,-0.5 v -0.25 0.125"
         id="path4015"
         inkscape:connector-curvature="0" />
      <path
         style="fill:#a22633;fill-opacity:1"
         d="m 18.25,8.5 q 0,-0.25 0.25,-0.25 0.25,0 0.25,0.25 0,0.25 -0.25,0.25 -0.25,0 -0.25,-0.25"
         id="path4017"
         inkscape:connector-curvature="0" />
      <path
         style="fill:#ead4aa;fill-opacity:1"
         d="M 20,8.5 V 8 l 0.375,0.125 q 0.375,0.125 0.5,0.5 L 21,9 20.90625,8.71875 20.8125,8.4375 20.875,8.625 q 0.0625,0.1875 0.09375,0.40625 L 21,9.25 20.984375,9.140625 20.96875,9.03125 20.484375,9.015625 20,9 V 8.5"
         id="path4019"
         inkscape:connector-curvature="0" />
      <path
         style="fill:#ead4aa;fill-opacity:1"
         d="M 10.125,9.625 Q 10.25,9.25 10.625,9.125 11,9 11.5,9 12,9 12.53125,8.96875 L 13.0625,8.9375 13,8.875 12.9375,8.8125 l 0.125,0.125 q 0.125,0.125 0.3125,0.1875 L 13.5625,9.1875 13.28125,9.09375 13,9 13.375,9.125 q 0.375,0.125 0.5,0.5 Q 14,10 14,10.5 14,11 13.625,11.125 13.25,11.25 13,11.5 12.75,11.75 12.375,11.875 12,12 11.5,12 H 11 l -0.125,-0.375 q -0.125,-0.375 -0.5,-0.5 L 10,11 V 10.5 Q 10,10 10.125,9.625 M 10.875,12 H 11 11.375 11.75 11.5 q -0.25,0 -0.5,0 h -0.25 0.125"
         id="path4021"
         inkscape:connector-curvature="0" />
      <path
         style="fill:#a22633;fill-opacity:1"
         d="M 19,9.5 Q 19.25,9.25 19.625,9.125 L 20,9 v 0.5 q 0,0.5 0,1 0,0.5 0,1 0,0.5 0,1 0,0.5 0,1 V 14 13.625 13.25 13.5 q 0,0.25 -0.03125,0.46875 l -0.03125,0.21875 0.01563,-0.109375 0.01563,-0.109375 -0.359375,0.140625 Q 19.25,14.25 19,14.5 18.75,14.75 18.375,14.875 18,15 17.5,15 17,15 16.625,14.875 16.25,14.75 16,14.5 15.75,14.25 15.5,14 15.25,13.75 15.125,13.375 15,13 15,12.5 V 12 12.375 12.75 12.5 q 0,-0.25 0.03125,-0.46875 l 0.03125,-0.21875 -0.01563,0.109375 -0.01563,0.109375 0.359375,-0.140625 Q 15.75,11.75 16,11.5 16.25,11.25 16.5,11 16.75,10.75 17,10.5 17.25,10.25 17.625,10.125 18,10 18.375,9.875 18.75,9.75 19,9.5"
         id="path4023"
         inkscape:connector-curvature="0" />
      <path
         style="fill:#e8b796;fill-opacity:1"
         d="M 20,9.5 V 9 L 20.484375,9.015625 20.96875,9.03125 20.953125,8.921875 20.9375,8.8125 20.96875,9.03125 Q 21,9.25 21,9.5 V 9.75 9.375 9 9.5 q 0,0.5 0,1 0,0.5 0,1 0,0.5 0,1 V 13 H 20.5 20 v -0.5 q 0,-0.5 0,-1 0,-0.5 0,-1 0,-0.5 0,-1 m 0,3.125 V 13 13.125 13.25 13 q 0,-0.25 0,-0.5 v -0.25 0.375 m 1,0.5 V 13 12.625 12.25 12.5 q 0,0.25 0,0.5 v 0.25 -0.125"
         id="path4025"
         inkscape:connector-curvature="0" />
      <path
         style="fill:#ead4aa;fill-opacity:1"
         d="M 1,10.5 V 10 H 1.5 2 v 0.5 q 0,0.5 0,1 V 12 11.625 11.25 11.5 q 0,0.25 0.03125,0.46875 L 2.0625,12.1875 2.046875,12.078125 2.03125,11.96875 1.515625,11.984375 1,12 v -0.5 q 0,-0.5 0,-1 m 0,1.125 V 12 12.125 12.25 12 q 0,-0.25 0,-0.5 v -0.25 0.375 m 1,-1.25 V 10 9.875 9.75 10 q 0,0.25 0,0.5 v 0.25 -0.375 M 1,9.875 V 10 10.375 10.75 10.5 Q 1,10.25 1,10 V 9.75 9.875"
         id="path4027"
         inkscape:connector-curvature="0" />
      <path
         style="fill:#e43b44;fill-opacity:1"
         d="m 3.25,11.5 q 0,-0.25 0.25,-0.25 0.25,0 0.5,0.25 0.25,0.25 0.5,0.5 0.25,0.25 0.359375,0.609375 L 4.96875,12.96875 5.078125,12.953125 5.1875,12.9375 4.96875,12.96875 Q 4.75,13 4.5,13 H 4.25 4.625 5 4.5 4 L 3.875,12.625 Q 3.75,12.25 3.5,12 3.25,11.75 3.25,11.5 M 3.875,13 H 4 4.375 4.75 4.5 Q 4.25,13 4,13 H 3.75 3.875"
         id="path4029"
         inkscape:connector-curvature="0" />
      <path
         style="fill:#f6757a;fill-opacity:1"
         d="M 7,11.5 Q 7.25,11.25 7.625,11.125 8,11 8.375,11.125 8.75,11.25 8.75,11.5 8.75,11.75 8.375,11.875 8,12 7.625,12.125 7.25,12.25 7,12.5 6.75,12.75 6.5,13 6.25,13.25 6,13.5 5.75,13.75 5.375,13.875 5,14 4.5,14 4,14 3.5,14 H 3 L 3.015625,13.484375 3.03125,12.96875 2.921875,12.953125 2.8125,12.9375 3.03125,12.96875 Q 3.25,13 3.5,13 H 3.75 3.375 3 3.5 Q 4,13 4.5,13 5,13 5.375,12.875 5.75,12.75 6,12.5 6.25,12.25 6.5,12 6.75,11.75 7,11.5"
         id="path4031"
         inkscape:connector-curvature="0" />
      <path
         style="fill:#e4a672;fill-opacity:1"
         d="M 10,11.5 V 11 l 0.375,0.125 q 0.375,0.125 0.5,0.5 L 11,12 H 10.5 10 v -0.5 m 0,0.125 V 12 12.125 12.25 12 q 0,-0.25 0,-0.5 v -0.25 0.375 M 10.625,12 H 11 11.125 11.25 11 q -0.25,0 -0.5,0 h -0.25 0.375"
         id="path4033"
         inkscape:connector-curvature="0" />
      <path
         style="fill:#e8b796;fill-opacity:1"
         d="M 1,12.5 V 12 L 1.515625,11.984375 2.03125,11.96875 2.015625,11.859375 2,11.75 2.03125,11.96875 Q 2.0625,12.1875 2.125,12.375 L 2.1875,12.5625 2.09375,12.28125 2,12 2.125,12.375 q 0.125,0.375 0.5,0.5 L 3,13 2.71875,12.90625 2.4375,12.8125 2.625,12.875 q 0.1875,0.0625 0.40625,0.09375 L 3.25,13 3.140625,12.984375 3.03125,12.96875 3.015625,13.484375 3,14 2.625,13.875 Q 2.25,13.75 2,13.5 1.75,13.25 1.375,13.125 L 1,13 v -0.5 m 0,0.125 V 13 13.125 13.25 13 q 0,-0.25 0,-0.5 v -0.25 0.375 m 0,-0.75 V 12 12.375 12.75 12.5 Q 1,12.25 1,12 v -0.25 0.125"
         id="path4035"
         inkscape:connector-curvature="0" />
      <path
         style="fill:#f6757a;fill-opacity:1"
         d="M 13.125,12.65625 Q 13.25,12.25 13.5,12.25 q 0.25,0 0.5,0.25 0.25,0.25 0.640625,0.359375 L 15.03125,12.96875 15.015625,12.859375 15,12.75 15.03125,12.96875 Q 15.0625,13.1875 15.125,13.375 L 15.1875,13.5625 15.09375,13.28125 15,13 15.125,13.375 Q 15.25,13.75 15.5,14 q 0.25,0.25 0.5,0.5 0.25,0.25 0.625,0.375 L 17,15 16.71875,14.90625 16.4375,14.8125 16.625,14.875 q 0.1875,0.0625 0.40625,0.09375 L 17.25,15 17.140625,14.984375 17.03125,14.96875 17.140625,15.359375 Q 17.25,15.75 17.625,15.875 L 18,16 17.71875,15.90625 17.4375,15.8125 17.625,15.875 Q 17.8125,15.9375 18,15.9375 H 18.1875 18.09375 18 l -0.125,0.40625 Q 17.75,16.75 17.375,16.875 L 17,17 16.875,16.625 Q 16.75,16.25 16.359375,16.140625 L 15.96875,16.03125 15.984375,16.140625 16,16.25 15.96875,16.03125 Q 15.9375,15.8125 15.875,15.625 L 15.8125,15.4375 15.90625,15.71875 16,16 15.875,15.625 Q 15.75,15.25 15.5,15 15.25,14.75 15,14.5 14.75,14.25 14.5,14 14.25,13.75 14,13.5 13.75,13.25 13.375,13.125 L 13,13 13.28125,13.09375 13.5625,13.1875 13.375,13.125 Q 13.1875,13.0625 13,13.0625 H 12.8125 12.90625 13 l 0.125,-0.40625"
         id="path4037"
         inkscape:connector-curvature="0" />
      <path
         style="fill:#b86f50;fill-opacity:1"
         d="M 1,13.5 V 13 l 0.375,0.125 Q 1.75,13.25 2,13.5 2.25,13.75 2.625,13.875 L 3,14 3.125,14.375 Q 3.25,14.75 3.5,15 3.75,15.25 4,15.5 4.25,15.75 4.5,16 4.75,16.25 5,16.5 5.25,16.75 5.5,17 5.75,17.25 5.875,17.625 6,18 6,18.5 6,19 6.015625,19.484375 L 6.03125,19.96875 6.140625,19.984375 6.25,20 6.03125,19.96875 Q 5.8125,19.9375 5.625,19.875 L 5.4375,19.8125 5.71875,19.90625 6,20 5.625,19.875 Q 5.25,19.75 5,19.5 4.75,19.25 4.5,19 4.25,18.75 4,18.5 3.75,18.25 3.5,18 3.25,17.75 3,17.5 2.75,17.25 2.5,17 2.25,16.75 2,16.5 1.75,16.25 1.5,16 1.25,15.75 1.125,15.375 1,15 1,14.5 1,14 1,13.5 M 1,12.875 V 13 13.375 13.75 13.5 Q 1,13.25 1,13 v -0.25 0.125"
         id="path4039"
         inkscape:connector-curvature="0" />
      <path
         style="fill:#ead4aa;fill-opacity:1"
         d="M 20,13.5 V 13 h 0.5 0.5 v 0.5 q 0,0.5 0,1 V 15 l -0.375,0.125 Q 20.25,15.25 20,15.5 19.75,15.75 19.5,16 19.25,16.25 19,16.5 18.75,16.75 18.5,17 18.25,17.25 18,17.5 17.75,17.75 17.375,17.875 L 17,18 17.28125,17.90625 17.5625,17.8125 17.375,17.875 Q 17.1875,17.9375 17,17.9375 H 16.8125 16.90625 17 V 17.46875 17 l 0.375,-0.125 q 0.375,-0.125 0.5,-0.53125 L 18,15.9375 H 17.90625 17.8125 18 q 0.1875,0 0.375,-0.0625 L 18.5625,15.8125 18.28125,15.90625 18,16 18.375,15.875 Q 18.75,15.75 19,15.5 19.25,15.25 19.5,15 19.75,14.75 19.875,14.375 20,14 20,13.5 m 1,1.625 V 15 14.625 14.25 14.5 q 0,0.25 0,0.5 v 0.25 -0.125 m 0,-1.75 V 13 12.875 12.75 13 q 0,0.25 0,0.5 v 0.25 -0.375 m -1,-0.5 V 13 13.375 13.75 13.5 q 0,-0.25 0,-0.5 v -0.25 0.125"
         id="path4041"
         inkscape:connector-curvature="0" />
      <path
         style="fill:#ead4aa;fill-opacity:1"
         d="M 3.125,14.375 3,14 H 3.5 4 l 0.125,0.375 q 0.125,0.375 0.5,0.5 0.375,0.125 0.5,0.5 0.125,0.375 0.5,0.5 0.375,0.125 0.5,0.5 0.125,0.375 0.5,0.5 L 7,17 6.71875,16.90625 6.4375,16.8125 6.625,16.875 q 0.1875,0.0625 0.40625,0.09375 L 7.25,17 7.140625,16.984375 7.03125,16.96875 7.015625,17.484375 7,18 6.484375,18.015625 5.96875,18.03125 5.984375,18.140625 6,18.25 5.96875,18.03125 Q 5.9375,17.8125 5.875,17.625 L 5.8125,17.4375 5.90625,17.71875 6,18 5.875,17.625 Q 5.75,17.25 5.5,17 5.25,16.75 5,16.5 4.75,16.25 4.5,16 4.25,15.75 4,15.5 3.75,15.25 3.5,15 3.25,14.75 3.125,14.375 M 7,18.125 V 18 17.625 17.25 17.5 q 0,0.25 0,0.5 v 0.25 -0.125 M 4.125,14 H 4 3.625 3.25 3.5 Q 3.75,14 4,14 H 4.25 4.125"
         id="path4043"
         inkscape:connector-curvature="0" />
      <path
         style="fill:#e43b44;fill-opacity:1"
         d="M 4.125,14.375 4,14 H 4.5 5 4.625 4.25 4.5 q 0.25,0 0.46875,-0.03125 L 5.1875,13.9375 5.078125,13.953125 4.96875,13.96875 4.953125,14.515625 4.9375,15.0625 5,15.125 5.0625,15.1875 4.9375,15.0625 Q 4.8125,14.9375 4.625,14.875 L 4.4375,14.8125 4.71875,14.90625 5,15 4.625,14.875 Q 4.25,14.75 4.125,14.375 M 4.375,14 H 4 3.875 3.75 4 q 0.25,0 0.5,0 H 4.75 4.375"
         id="path4045"
         inkscape:connector-curvature="0" />
      <path
         style="fill:#f6757a;fill-opacity:1"
         d="m 12.25,14.5 q 0,-0.25 0.25,-0.25 0.25,0 0.25,0.25 0,0.25 -0.25,0.25 -0.25,0 -0.25,-0.25"
         id="path4047"
         inkscape:connector-curvature="0" />
      <path
         style="fill:#e43b44;fill-opacity:1"
         d="m 19,14.5 q 0.25,-0.25 0.609375,-0.390625 L 19.96875,13.96875 19.984375,13.859375 20,13.75 19.96875,13.96875 Q 19.9375,14.1875 19.875,14.375 L 19.8125,14.5625 19.90625,14.28125 20,14 19.875,14.375 Q 19.75,14.75 19.5,15 19.25,15.25 19,15.5 18.75,15.75 18.375,15.875 18,16 17.625,15.875 17.25,15.75 17.140625,15.359375 L 17.03125,14.96875 16.921875,14.953125 16.8125,14.9375 17.03125,14.96875 Q 17.25,15 17.5,15 H 17.75 17.375 17 17.5 Q 18,15 18.375,14.875 18.75,14.75 19,14.5"
         id="path4049"
         inkscape:connector-curvature="0" />
      <path
         style="fill:#e43b44;fill-opacity:1"
         d="M 8,15.5 Q 8.25,15.25 8.625,15.125 9,15 9.5,15 q 0.5,0 1,0 0.5,0 0.875,0.125 0.375,0.125 0.375,0.375 0,0.25 -0.375,0.375 Q 11,16 10.5,16 10,16 9.625,16.125 9.25,16.25 9.125,16.625 L 9,17 H 8.5 Q 8,17 7.5,17 7,17 6.625,16.875 6.25,16.75 6.125,16.375 L 6,16 6.09375,16.28125 6.1875,16.5625 6.125,16.375 Q 6.0625,16.1875 5.9375,16.0625 L 5.8125,15.9375 5.875,16 5.9375,16.0625 6.46875,16.03125 Q 7,16 7.375,15.875 7.75,15.75 8,15.5 M 8.625,17 H 9 9.125 9.25 9 Q 8.75,17 8.5,17 H 8.25 8.625"
         id="path4051"
         inkscape:connector-curvature="0" />
      <path
         style="fill:#e8b796;fill-opacity:1"
         d="m 20,15.5 q 0.25,-0.25 0.625,-0.375 L 21,15 v 0.5 Q 21,16 20.875,16.375 20.75,16.75 20.5,17 20.25,17.25 20,17.5 19.75,17.75 19.5,18 19.25,18.25 19,18.5 18.75,18.75 18.5,19 18.25,19.25 18,19.5 17.75,19.75 17.375,19.875 L 17,20 v -0.5 q 0,-0.5 0,-1 V 18 l 0.375,-0.125 Q 17.75,17.75 18,17.5 18.25,17.25 18.5,17 18.75,16.75 19,16.5 19.25,16.25 19.5,16 19.75,15.75 20,15.5 m 1,-0.125 V 15 14.875 14.75 15 q 0,0.25 0,0.5 v 0.25 -0.375"
         id="path4053"
         inkscape:connector-curvature="0" />
      <path
         style="fill:#e43b44;fill-opacity:1"
         d="M 16,16.5 V 16 16.375 16.75 16.5 q 0,-0.25 -0.03125,-0.46875 l -0.03125,-0.21875 0.01563,0.109375 0.01563,0.109375 0.390625,0.109375 Q 16.75,16.25 16.875,16.625 L 17,17 H 16.5 16 v -0.5"
         id="path4055"
         inkscape:connector-curvature="0" />
      <path
         style="fill:#e8b796;fill-opacity:1"
         d="M 7.015625,17.484375 7.03125,16.96875 6.921875,16.953125 6.8125,16.9375 7.03125,16.96875 Q 7.25,17 7.5,17 H 7.75 7.375 7 7.5 q 0.5,0 1,0 0.5,0 1,0 0.5,0 1,0 0.5,0 1,0 0.5,0 1,0 0.5,0 1,0 H 14 l 0.125,0.375 0.125,0.375 -0.09375,-0.28125 -0.09375,-0.28125 0.0625,0.1875 q 0.0625,0.1875 0.15625,0.28125 L 14.375,17.75 14.32813,17.70313 14.28126,17.65626 14.015635,17.953135 Q 13.75,18.25 13.375,18.125 13,18 12.5,18 q -0.5,0 -1,0 -0.5,0 -1,0 -0.5,0 -1,0 -0.5,0 -1,0 -0.5,0 -1,0 H 7 L 7.015625,17.484375 M 14.125,17 H 14 13.625 13.25 13.5 q 0.25,0 0.5,0 h 0.25 -0.125"
         id="path4057"
         inkscape:connector-curvature="0" />
      <path
         style="fill:#ead4aa;fill-opacity:1"
         d="M 14.125,17.375 14,17 h 0.5 0.5 l -0.125,0.375 Q 14.75,17.75 14.5,17.75 q -0.25,0 -0.375,-0.375 m 1,-0.375 H 15 14.625 14.25 14.5 q 0.25,0 0.5,0 h 0.25 -0.125 m -0.75,0 H 14 13.875 13.75 14 q 0.25,0 0.5,0 h 0.25 -0.375"
         id="path4059"
         inkscape:connector-curvature="0" />
      <path
         style="fill:#e8b796;fill-opacity:1"
         d="M 14.875,17.375 15,17 h 0.5 0.5 l 0.125,0.375 0.125,0.375 -0.09375,-0.28125 -0.09375,-0.28125 0.0625,0.1875 q 0.0625,0.1875 0.1875,0.3125 l 0.125,0.125 L 16.375,17.75 16.3125,17.6875 16.03125,17.96875 Q 15.75,18.25 15.5,18.25 q -0.25,0 -0.515625,-0.296875 L 14.71875,17.65625 14.671875,17.703125 14.625,17.75 14.71875,17.65625 Q 14.8125,17.5625 14.875,17.375 L 14.9375,17.1875 14.84375,17.46875 14.75,17.75 14.875,17.375 M 15.375,17 H 15 14.875 14.75 15 q 0.25,0 0.5,0 h 0.25 -0.375"
         id="path4061"
         inkscape:connector-curvature="0" />
      <path
         style="fill:#e4a672;fill-opacity:1"
         d="M 16.125,17.375 16,17 h 0.5 0.5 v 0.46875 0.46875 H 17.09375 17.1875 17 q -0.1875,0 -0.375,-0.0625 L 16.4375,17.8125 16.71875,17.90625 17,18 16.625,17.875 q -0.375,-0.125 -0.5,-0.5"
         id="path4063"
         inkscape:connector-curvature="0" />
      <path
         style="fill:#d77643;fill-opacity:1"
         d="M 6,18.5 V 18 18.375 18.75 18.5 Q 6,18.25 5.96875,18.03125 L 5.9375,17.8125 5.953125,17.921875 5.96875,18.03125 6.484375,18.015625 7,18 v 0.5 q 0,0.5 0,1 V 20 H 6.5 6 6.375 6.75 6.5 Q 6.25,20 6.03125,19.96875 L 5.8125,19.9375 5.921875,19.953125 6.03125,19.96875 6.015625,19.484375 Q 6,19 6,18.5 M 6.625,20 H 7 7.125 7.25 7 Q 6.75,20 6.5,20 H 6.25 6.625 M 7,18.375 V 18 17.875 17.75 18 q 0,0.25 0,0.5 v 0.25 -0.375"
         id="path4065"
         inkscape:connector-curvature="0" />
      <path
         style="fill:#c28569;fill-opacity:1"
         d="M 7,18.5 V 18 h 0.5 q 0.5,0 1,0 0.5,0 1,0 0.5,0 1,0 0.5,0 1,0 0.5,0 1,0 0.5,0 0.875,0.125 0.375,0.125 0.640625,-0.171875 l 0.265625,-0.296875 -0.04687,-0.04687 -0.04687,-0.04687 0.09375,0.09375 Q 14.375,17.75 14.5,17.75 H 14.625 14.4375 14.25 14.5 14.75 14.5625 14.375 14.5 q 0.125,0 0.21875,-0.09375 l 0.09375,-0.09375 -0.04687,0.04687 -0.04687,0.04687 0.265625,0.296875 Q 15.25,18.25 15.5,18.25 q 0.25,0 0.53125,-0.28125 L 16.3125,17.6875 16.25,17.625 l -0.0625,-0.0625 0.125,0.125 q 0.125,0.125 0.3125,0.1875 L 16.8125,17.9375 16.53125,17.84375 16.25,17.75 16.625,17.875 17,18 v 0.5 q 0,0.5 0,1 V 20 h -0.5 q -0.5,0 -1,0 -0.5,0 -1,0 -0.5,0 -1,0 -0.5,0 -1,0 -0.5,0 -1,0 -0.5,0 -1,0 -0.5,0 -1,0 -0.5,0 -1,0 -0.5,0 -1,0 H 7 V 19.5 Q 7,19 7,18.5 M 6.875,20 H 7 7.375 7.75 7.5 Q 7.25,20 7,20 H 6.75 6.875"
         id="path4067"
         inkscape:connector-curvature="0" />
    </g>
  </g>
</svg>
